<svg version="1" xmlns="http://www.w3.org/2000/svg" width="346.667" height="346.667" viewBox="0 0 260.000000 260.000000"><path d="M116.9 1.4c-.2.2-2.4.7-4.9 1-30.5 4.2-59.6 19.9-78.9 42.7-9.9 11.7-12.8 16-19 28.4-8.5 17.2-12.2 33-12.7 54-.4 23.1 3.4 40.3 13.6 60.6 6.8 13.7 13 22.1 25.5 34.4 17.5 17.2 39.5 28.8 64.8 34.2 8.7 1.9 33.7 2.5 43.2 1.1 27.9-4.2 52.3-16.5 72.5-36.8 18.4-18.4 30.3-40.4 35.6-66 1.9-9 2.6-33.9 1.2-43.3-6.6-45.2-37-83.8-79.8-101.4-6.5-2.7-17.2-5.7-27.5-7.9-3.6-.7-32.9-1.6-33.6-1z"/></svg>